<?xml version="1.0" encoding="utf-8"?>
<!-- Generator: Adobe Illustrator 18.1.1, SVG Export Plug-In . SVG Version: 6.00 Build 0)  -->
<svg version="1.1" id="Layer_1" xmlns:mydata="http://www.w3.org/2000/svg"
	 xmlns="http://www.w3.org/2000/svg" xmlns:xlink="http://www.w3.org/1999/xlink" x="0px" y="0px" viewBox="128.7 260.1 612 501.8"
	 enable-background="new 128.7 260.1 612 501.8" xml:space="preserve">
<g>
	<g>
		<g>
			<path fill="#FFFFFF" d="M138.6,623.9l2.6-2.1c-0.6-0.8-1.4-1.4-2.3-1.8c-0.9-0.4-1.8-0.6-2.8-0.6c-1.8,0-3.4,0.7-4.6,1.9l0,0
				c-1.2,1.2-1.9,2.9-1.9,4.6c0,4.2,2.9,5.6,6.2,7.1c2.3,1,4.7,2,4.7,4.9c0,1.2-0.5,2.4-1.4,3.3c-0.9,0.9-2.1,1.4-3.3,1.4
				c-0.9,0-1.7-0.2-2.4-0.6c-0.7-0.4-1.3-1-1.7-1.8l0-0.1l-3,1.6v0c0.7,1.2,1.8,2.3,3,3.1c1.2,0.7,2.7,1.2,4.2,1.2
				c2.2,0,4.2-0.9,5.7-2.4l0,0c1.5-1.5,2.4-3.6,2.4-5.7c0-4.7-3-6.4-6.8-8.1c-1.8-0.8-4.2-1.6-4.2-4c0-0.8,0.3-1.6,0.9-2.2l0,0
				c0.6-0.6,1.4-0.9,2.2-0.9c0.5,0,0.9,0.1,1.3,0.3C137.9,623.3,138.3,623.6,138.6,623.9L138.6,623.9z"/>
			<path fill="#FFFFFF" d="M158.7,619.9h-2.6v25.8h3.4v-25.8L158.7,619.9z"/>
			<path fill="#FFFFFF" d="M182.4,623.3h6.2v-3.4h-15.7v3.4h6.2v22.4h3.4L182.4,623.3z"/>
			<path fill="#FFFFFF" d="M204.6,623.3h8.8v-3.4h-12.2v25.8h12.2v-3.4h-8.8V636h6.7v-3.4h-6.7V623.3z"/>
			<path fill="#FFFFFF" d="M241.8,637.4v-3.4h-15.5v3.4H241.8z"/>
			<path fill="#FFFFFF" d="M258,619.9h-3.4v16.5c0,2.6,1,5,2.8,6.9l0,0c1.8,1.8,4.2,2.8,6.8,2.8c2.6,0,5-1,6.8-2.8
				c1.8-1.8,2.8-4.3,2.8-6.9v-16.5h-3.4v16.5c0,1.7-0.6,3.3-1.8,4.5c-1.2,1.2-2.7,1.8-4.4,1.8c-1.7,0-3.3-0.6-4.4-1.8
				c-1.2-1.2-1.8-2.8-1.8-4.5L258,619.9z"/>
			<path fill="#FFFFFF" d="M299.7,643v-0.8h-9.6v-22.4h-3.4v25.8h13V643z"/>
			<path fill="#FFFFFF" d="M340.7,623.3h6.2v-3.4h-15.7v3.4h6.2v22.4h3.4L340.7,623.3z"/>
			<path fill="#FFFFFF" d="M370.2,638.9l2.7,6.7h2.4h1.2l-0.6-1.5l-9.8-24.3h-1.5l-9.8,24.3l-0.6,1.5h1.2h2.4l2.7-6.7H370.2z
				 M365.5,627.1l3.4,8.4h-6.8L365.5,627.1z"/>
			<path fill="#FFFFFF" d="M391,619.9h-3.4v16.5c0,2.6,1,5,2.8,6.9l0,0c1.8,1.8,4.2,2.8,6.8,2.8c2.6,0,5-1,6.8-2.8
				c1.8-1.8,2.8-4.3,2.8-6.9v-16.5h-3.4v16.5c0,1.7-0.6,3.3-1.8,4.5c-1.2,1.2-2.7,1.8-4.4,1.8s-3.3-0.6-4.4-1.8
				c-1.2-1.2-1.8-2.8-1.8-4.5V619.9z"/>
			<path fill="#FFFFFF" d="M441.3,619.9h-2.6v25.8h3.4v-25.8L441.3,619.9z"/>
			<path fill="#FFFFFF" d="M473,639l-15.1-19.2h-2.5v25.8h3.4v-19.2l15.1,19.2h2.5v-25.8H473L473,639z"/>
			<path fill="#FFFFFF" d="M514.5,642.5l8.1-9.4c0.6-0.7,1.1-1.6,1.4-2.4c0.3-0.9,0.4-1.8,0.4-2.8c0-2.2-0.9-4.2-2.4-5.8
				c-1.5-1.5-3.6-2.4-5.8-2.4s-4.2,0.9-5.8,2.4c-1,1.1-1.8,2.4-2.1,3.8l0,0l3.3,0.9v0c0.2-0.9,0.6-1.6,1.2-2.2
				c0.9-0.9,2.1-1.4,3.4-1.4c1.3,0,2.5,0.5,3.4,1.4c0.9,0.9,1.4,2.1,1.4,3.4v0.2l0,0c0,0.5-0.1,1-0.3,1.5c-0.2,0.5-0.4,1-0.8,1.4
				l-11.4,13.4l-0.1,0.1l0.7,1.5h0.1h15v-3.4H514.5z"/>
			<path fill="#FFFFFF" d="M546.6,637.9v7.8h3.4v-7.8h3.6v-3.4H550v-14.6h-2.5L545,623l-6.3,8l-3.2,4l-0.8,0.9l1.4,1.9H546.6z
				 M540.2,634.5l5.5-6.9l0.9-1.1v8.1H540.2z"/>
			<path fill="#FFFFFF" d="M584.4,619.9v25.8h7.6c3.4,0,6.7-1.3,9.1-3.8c2.4-2.4,3.8-5.7,3.8-9.1c0-3.4-1.4-6.7-3.8-9.1
				c-2.4-2.4-5.7-3.8-9.1-3.8H584.4z M587.8,623.3h4.2c2.5,0,4.9,1,6.7,2.8c1.8,1.8,2.8,4.2,2.8,6.7c0,2.5-1,4.9-2.8,6.7
				c-1.8,1.8-4.2,2.8-6.7,2.8h-4.2V623.3z"/>
			<path fill="#FFFFFF" d="M620.2,623.3h8.8v-3.4h-12.2v25.8H629v-3.4h-8.8V636h6.7v-3.4h-6.7V623.3z"/>
			<path fill="#FFFFFF" d="M664.7,623.3c-2.5,2.5-3.9,5.9-3.9,9.4c0,3.6,1.4,6.9,3.9,9.4c2.5,2.5,5.9,3.9,9.4,3.9s6.9-1.4,9.4-3.9
				c2.5-2.5,3.9-5.9,3.9-9.4c0-3.5-1.4-6.9-3.9-9.4c-2.5-2.5-5.9-3.9-9.4-3.9S667.2,620.8,664.7,623.3z M674.1,622.8
				c2.7,0,5.1,1.1,7,2.9c1.9,1.9,2.9,4.4,2.9,7c0,2.7-1,5.2-2.9,7c-1.9,1.9-4.4,2.9-7,2.9c-2.7,0-5.1-1-7-2.9
				c-1.9-1.8-2.9-4.4-2.9-7c0-2.6,1-5.1,2.9-7C669,623.9,671.5,622.8,674.1,622.8z"/>
			<path fill="#FFFFFF" d="M705.8,636.7l6.6,8.9h4.2l-6.9-9.5c1.2-0.4,2.1-1.1,3-1.9c1.6-1.6,2.5-3.7,2.5-6s-0.9-4.4-2.5-6
				c-1.6-1.6-3.7-2.4-5.9-2.4h-7v25.8h3.4v-8.9L705.8,636.7z M703.1,623.3h3.6c1.3,0,2.6,0.5,3.5,1.5c0.9,0.9,1.5,2.2,1.5,3.6
				s-0.5,2.6-1.5,3.6c-0.9,0.9-2.2,1.5-3.5,1.5h-3.6V623.3z"/>
			<path fill="#FFFFFF" d="M731.8,623.3h8.8v-3.4h-12.2v25.8h12.2v-3.4h-8.8V636h6.7v-3.4h-6.7V623.3z"/>
		</g>
		<g>
			<path fill="#FFFFFF" d="M135.5,431.2c1.6,12.7,1.3,41.2-0.5,62.1c-1.1,12.4-3.2,24.6-4.5,36.7c-1.1,8.2-2.4,15.9-1.6,23.8
				c2.4,27.5,33,29.9,47.1,17.4c15.1-13.5,25.4-73,37.5-72.2c10,0.5,9,17.7,9.5,25.6c0.3,6.3,0.3,9-0.5,37.3
				c-0.5,13.7,0.3,43.6,20.6,43.6c15.9,0,30.1-17.7,38.3-29.6c26.2-37.5,47.3-82.2,62.1-127.4c6.1-18.8,22.5-66.9-2.4-72.7
				c-5-1.1-9,6.6-4.2,7.7c15.9,3.7,6.6,38.1,3.2,50.8c-14.3,47.3-35.4,94.6-62.6,133.8c-6.9,9.8-24.1,30.9-33.8,29.1
				c-4.2-0.8-5-4.8-5.3-8.5c-1.3-16.1,0.3-32.8,0.8-48.6c0.3-9.8-0.3-31.7-8.7-42.8c-8.5-11.6-23.3-7.9-30.1,1.9
				c-12.2,16.7-20.4,51-27.5,64c-2.4,4.2-5,4.8-6.9,3.4c-3.4-2.1-2.9-24.8-1.3-36c4.2-33.6,9.3-75.1,1.9-108.1
				C165.4,417.8,134.5,419.9,135.5,431.2L135.5,431.2z"/>
			<path fill="#FFFFFF" d="M405.1,484.4c-5.8-5.6-28-10.6-45.2,2.4c-8.7,6.6-20.6,20.6-11.6,38.3c8.2,16.1,38.1,14.3,46.3,12.7
				c19.3-4,31.7-17.4,47.3-33.8c4-4-0.8-9.3-4.8-5.6c-18.5,17.4-27.5,28.3-43.9,31.5c-13.2,2.6-17.4-3.7-17.4-9.8
				c0-2.6,1.1-6.1,2.6-9.5C390.3,522.7,417.3,496.3,405.1,484.4z M389,495c2.6-2.6,6.3-6.6,9.8-5.6c3.2,1.1-1.1,9-1.9,9.8
				c-3.2,3.7-10.6,9.5-14,4.5c-0.3,0-0.3-0.3-0.5-0.3C384.5,500.2,386.6,497.6,389,495L389,495z"/>
			<path fill="#FFFFFF" d="M529.6,443.7c8.2-10,15.9-23,17.7-36.5c3.7-27-30.1-27.8-50.8-11.1c-17.2,13.7-32,35.2-41,54.5
				c-10.3,21.7-18.5,39.7-22.2,63.7c-1.6,11.1,20.9,15.9,27,6.6h0.5c0-0.3,0.3-0.5,0.3-0.8c5-4.8,10.3-9.3,16.1-12.7
				c4.8-2.9,9.5-5.8,14.3-7.7c3.2-1.3,6.6-2.4,9.8-2.6c9.3-0.5,13.2,7.1,12.4,15.3c0,0.8-0.3,1.9-0.5,2.6l-13.5,4
				c-7.1,2.1-20.6,5-23.8,13.5c-3.2,8.7,5.8,14.5,13.7,13.7c10.6-1.1,24.6-11.6,29.9-20.1c1.3-2.1,2.4-4.2,2.9-6.3
				c14.3-4.2,27.5-7.1,41.5-14.3c4.8-3.2,1.1-9.3-4-6.9c-12.4,6.6-24.1,10.3-36.2,13.5c0.5-11.6-7.4-22.5-22.5-23
				c-10.6,0-23.3,7.1-33.8,15.1c2.1-4.8,4-9.8,5.8-14.8C495.8,478.6,515.9,460.9,529.6,443.7L529.6,443.7z M507.7,422.3
				c9-11.9,25.9-31.7,31.5-21.7c4,7.1-8.2,28.5-15.3,37.8c-10.6,13.7-27.8,29.1-46,39.9C486,458.5,495,439.2,507.7,422.3z
				 M484.7,537.8c-1.1-0.8-0.8-0.3-1.6-1.6v-0.5c0-0.3,0.3-0.3,0.3-0.5c4.2-5.8,17.4-7.7,24.6-10.3
				C501.6,533.3,491.3,541,484.7,537.8L484.7,537.8z"/>
			<path fill="#FFFFFF" d="M651.2,447.6c-12.7-27-73.2-10.3-83.8,9.5c-3.7,6.9-5.6,20.9,3.4,24.1c3.7,1.3,6.9-3.4,4-6.6
				c-1.3-1.6-1.9-2.6-2.1-4.8c-2.4-14.5,45.5-37,45.7-19c0.3,24.1-55,67.7-55.5,83.5c-0.5,13,75.3,9.8,81.2,0.8
				c2.9-4.5,1.3-8.7-4.5-6.9c-13.5,4.2-28,5.8-42.6,6.1C611.3,516.6,661.8,470.4,651.2,447.6L651.2,447.6z"/>
			<path fill="#FFFFFF" d="M720.2,437.1c3.7-2.9,2.1-8.2-2.9-7.4c-12.7,2.6-89.3,63.4-48.1,59.7c6.6-0.8,16.1-3.7,25.1-5.8
				c-5.6,21.4-9.8,44.4-7.9,50.5c3.2,10,34.6,7.7,34.6-0.5c-0.5-16.9,17.2-69.8,19.6-87.5c1.1-7.4-10.6-10.3-20.6-8.7L720.2,437.1z
				 M706,445.3c-2.4,5-6.1,16.7-9.5,29.9c-11.1,1.9-23.5,5.3-30.7,6.3C669,473.3,696.2,452.1,706,445.3z"/>
		</g>
		<path fill="#FFFFFF" d="M257.2,333.6c23.2-23.2,49.7-41.1,79.8-53.8c31.1-13.1,63.6-19.7,97.7-19.7c34,0,66.6,6.6,97.7,19.7
			c30,12.7,56.6,30.6,79.8,53.8c22.1,22.1,39.4,47.3,52,75.6l-13.8-1.1c-11.7-24.5-27.3-46.5-46.7-65.9c-22-22-47.4-39.1-75.9-51.2
			c-29.6-12.5-60.6-18.8-93-18.8s-63.4,6.3-93,18.8c-28.6,12.1-53.9,29.2-75.9,51.2c-22,22-39.1,47.3-51.2,75.9
			c-4.1,9.8-7.6,19.7-10.4,29.8l-7-4.2l-0.1-0.9l-0.5-6.1l-0.1-1l-0.4-2.9c2.2-6.6,4.6-13.1,7.3-19.6
			C216.2,383.3,234.1,356.7,257.2,333.6z M612.1,688.4c-23.2,23.1-49.7,41.1-79.8,53.8c-31.1,13.1-63.6,19.7-97.7,19.7
			c-34,0-66.6-6.6-97.7-19.7c-30-12.7-56.6-30.6-79.8-53.8c-4.8-4.8-9.4-9.8-13.8-14.9l16.3,0.2c2,2.1,4,4.2,6,6.3
			c22,22,47.3,39.1,75.9,51.2c29.6,12.5,60.6,18.8,93,18.8s63.4-6.3,93-18.8c28.6-12.1,53.9-29.2,75.9-51.2c2.2-2.2,4.3-4.4,6.4-6.6
			l16.1,0.1C621.6,678.5,617,683.6,612.1,688.4z"/>
	</g>
</g>
</svg>
